<svg xmlns="http://www.w3.org/2000/svg" version="1.1" xmlns:xlink="http://www.w3.org/1999/xlink" xmlns:svgjs="http://svgjs.dev/svgjs" viewBox="0 0 800 800" opacity="0.17"><defs><linearGradient x1="50%" y1="0%" x2="50%" y2="100%" id="uundulate-grad"><stop stop-color="hsl(185, 53%, 55%)" stop-opacity="1" offset="45%"></stop><stop stop-color="hsl(0, 73%, 55%)" stop-opacity="1" offset="100%"></stop></linearGradient></defs><g stroke-width="5" stroke="url(#uundulate-grad)" fill="none"><path d="M1936.8978370437985 -176.75497054036305C2301.999298926246 531.6158328160204 2124.3684220810105 1543.5702721405282 1833.556921254004 1988.1737828656037C1542.745420426997 2432.7772935906787 1200.9944634334088 2214.8732479916002 541.0026330741648 1957.3418809399986C-118.98919728507872 1699.810513888397 -1238.5845459587151 1453.9707114731254 -1334.4038644703612 752.0232210179101C-1430.2231829820075 50.07573056269507 -600.4512835971873 -1218.5106166703933 81.06990421826254 -1412.0060732450327C762.5910920337124 -1605.501529819672 1571.796375161352 -885.1257738967465 1936.8978370437985 -176.75497054036305C2301.999298926246 531.6158328160204 2124.3684220810105 1543.5702721405282 1833.556921254004 1988.1737828656037 "></path><path d="M1907.3419820561403 -165.6635287992019C2265.4222619793095 529.0847591080201 2091.207363534944 1521.5785361378262 1805.9883915699947 1957.6319793489574C1520.769419605046 2393.685422560089 1185.5905963997961 2179.971839376378 538.2909166243844 1927.3929986142298C-109.00876315102823 1674.8141578520822 -1207.0734320424792 1433.7020439447965 -1301.0500713519784 745.2535436906433C-1395.0267106614776 56.80504343648954 -581.2119631879041 -1187.385412503655 87.20304793878722 -1377.1598026057052C755.6180590654781 -1566.9341927077553 1549.261702132971 -860.4118167064244 1907.3419820561403 -165.6635287992019C2265.4222619793095 529.0847591080201 2091.207363534944 1521.5785361378262 1805.9883915699947 1957.6319793489574 "></path><path d="M1877.7864017266847 -154.5721786107756C2228.845499690576 526.5535938472858 2058.0465796470808 1499.5867085823893 1778.420136544189 1927.0900842795768C1498.7936934412978 2354.5934599767643 1170.1870040243866 2145.07033920842 535.5794748328058 1897.444024735726C-99.02805435877463 1649.817710263032 -1175.5620434680404 1413.4332848637328 -1267.6960035753923 738.4837748106411C-1359.8299636827446 63.53426475754941 -561.9723681204175 -1156.260299889651 93.33646631751503 -1342.3136235191118C748.6453007554474 -1528.366947148573 1526.7273037627933 -835.6979510688368 1877.7864017266847 -154.5721786107756C2228.845499690576 526.5535938472858 2058.0465796470808 1499.5867085823893 1778.420136544189 1927.0900842795768 "></path><path d="M1848.2306688093386 -143.48064531688055C2192.268584813952 524.0226116920194 2024.8856431713266 1477.5950641324207 1750.8517289304932 1896.5483723156653C1476.8178146896598 2315.501680498908 1154.783259061086 2110.169022145931 532.8678804533374 1867.4952339626907C-89.04749815441164 1624.821445779451 -1144.050807481492 1393.1647088881377 -1234.342088386697 731.7141890361077C-1324.633369291902 70.26366918407803 -542.7329256408216 -1125.1350041701783 99.46973210835222 -1307.46726132705C741.6723898575256 -1489.7995184839217 1504.192752804725 -810.9839023257804 1848.2306688093386 -143.48064531688055C2192.268584813952 524.0226116920194 2024.8856431713266 1477.5950641324207 1750.8517289304932 1896.5483723156653 "></path><path d="M1818.674935891992 -132.38929512845402C2155.6916699373282 521.4914464312847 1991.7247066955724 1455.6032365769843 1723.283321316797 1866.0064772462838C1454.8419359380214 2276.409717915584 1139.379514097786 2075.267521977974 530.1562860738686 1837.5462600841875C-79.06694195004866 1599.8249981904014 -1112.5395714949436 1372.895949807074 -1200.9881731980017 724.9444201561059C-1289.4367749010598 76.9928905051379 -523.4934831612259 -1094.0098915561744 105.6029978991894 -1272.6210822404569C734.6994789596042 -1451.2322729247394 1481.6582018466565 -786.2700366881927 1818.674935891992 -132.38929512845402C2155.6916699373282 521.4914464312847 1991.7247066955724 1455.6032365769843 1723.283321316797 1866.0064772462838 "></path><path d="M1789.1189893515993 -121.29776183455874C2119.1145414376574 518.9604642760187 1958.5635565967714 1433.6115921270161 1695.7147000800533 1835.4647652823728C1432.865843563336 2237.317938437729 1123.9755555114389 2040.366204915485 527.4444780713532 1807.597469311153C-69.08659936873255 1574.8287337068205 -1081.0285491314423 1352.6273738314794 -1167.6344716323533 718.174834381573C-1254.240394133264 83.72229493166674 -504.2542543046768 -1062.8845958367017 111.73605006697971 -1237.774720048395C727.726354438636 -1412.6648442600883 1459.1234372655413 -761.5559879451362 1789.1189893515993 -121.29776183455874C2119.1145414376574 518.9604642760187 1958.5635565967714 1433.6115921270161 1695.7147000800533 1835.4647652823728 "></path><path d="M1759.5632564342532 -110.20632009339806C2082.5376265610334 516.4293905680183 1925.4026201210172 1411.6198561243136 1668.1462924663574 1804.922961765726C1410.8899648116976 2198.226067407139 1108.5718105481387 2005.4647963002617 524.7328836918846 1777.6485869853832C-59.10604316436957 1549.8323776705051 -1049.517313144894 1332.35870630315 -1134.280556443658 711.4051570543052C-1219.043799742422 90.45160780546121 -485.014811825081 -1031.7593916699634 117.8693158578169 -1202.9284494090673C720.7534435407151 -1374.0975071481714 1436.5888863074729 -736.8420307548142 1759.5632564342532 -110.20632009339806C2082.5376265610334 516.4293905680183 1925.4026201210172 1411.6198561243136 1668.1462924663574 1804.922961765726 "></path><path d="M1730.0076761047976 -99.11487835223716C2045.9608642722997 513.898316860018 1892.2418362331537 1389.6281201216111 1640.5780374405517 1774.3811582490798C1388.9142386479493 2159.1341963765485 1093.1682181727292 1970.5633876850388 522.0214419003064 1747.6997046596143C-49.12533437211573 1524.8360216341898 -1018.005924570455 1312.0900387748202 -1100.926488667072 704.6354797270378C-1183.8470527636887 97.18092067925545 -465.77521675759454 -1000.634187503225 124.00273423654471 -1168.0821787697398C713.780685230684 -1335.5301700362547 1414.054487937295 -712.1280735644921 1730.0076761047976 -99.11487835223716C2045.9608642722997 513.898316860018 1892.2418362331537 1389.6281201216111 1640.5780374405517 1774.3811582490798 "></path><path d="M1700.4519431874514 -88.02343661107648C2009.3839493956757 511.3672431520174 1859.0808997573995 1367.6363841189082 1613.0096298268554 1743.8393547324335C1366.9383598963109 2120.042325345959 1077.7644732094286 1935.6619790698155 519.309847520838 1717.750822333845C-39.144778167752975 1499.8396655978745 -986.4946885839067 1291.8213712464908 -1067.5725734783766 697.8658023997705C-1148.6504583728465 103.9102335530497 -446.5357742779987 -969.5089833364866 130.1360000273819 -1133.2359081304123C706.8077743327622 -1296.9628329243378 1391.5199369792267 -687.4141163741701 1700.4519431874514 -88.02343661107648C2009.3839493956757 511.3672431520174 1859.0808997573995 1367.6363841189082 1613.0096298268554 1743.8393547324335 "></path><path d="M1670.8962407876834 -76.93208642264972C1972.8070650366299 508.8360778912829 1825.9199937992234 1345.6445565634722 1585.4412527307372 1713.2974596630534C1344.962511662251 2080.950362762635 1062.3607587637066 1900.7604789018587 516.5982836589474 1687.8018484553418C-29.164191445811866 1474.8432180088248 -954.9834220797803 1271.5526121654275 -1034.218627772103 691.0960335197688C-1113.453833464426 110.63945487410979 -427.29630128082476 -938.3838707224827 136.2692963357972 -1098.389729043819C699.8348939524194 -1258.3955873651555 1368.9854165387364 -662.7002507365823 1670.8962407876834 -76.93208642264972C1972.8070650366299 508.8360778912829 1825.9199937992234 1345.6445565634722 1585.4412527307372 1713.2974596630534 "></path><path d="M1641.3405383879153 -65.84055312875444C1936.230180677584 506.30509573601694 1792.7590878410479 1323.6529121135036 1557.872875634619 1682.7557476991415C1322.9866634281907 2041.858583284779 1046.9570443179846 1865.8591618393693 513.8867197970571 1657.8530576823068C-19.183604723870758 1449.8469535252439 -923.4721555756539 1251.2840361898325 -1000.8646820658296 684.3264477452353C-1078.2572085560055 117.3688593006384 -408.0568282836507 -907.25857500301 142.40259264421252 -1063.5433668517571C692.8620135720757 -1219.8281587005044 1346.4508960982462 -637.986201993526 1641.3405383879153 -65.84055312875444C1936.230180677584 506.30509573601694 1792.7590878410479 1323.6529121135036 1557.872875634619 1682.7557476991415 "></path><path d="M1611.7848054705687 -54.749111387593985C1899.65326580096 503.77402202801636 1759.5981513652937 1301.661176110801 1530.3044680209227 1652.2139441824952C1301.0107846765518 2002.7667122541889 1031.5532993546844 1830.9577532241465 511.17512541758833 1627.9041753565375C-9.203048519507774 1424.8505974889285 -891.9609195891055 1231.015368661503 -967.5107668771343 677.5567704179675C-1043.060614165163 124.09817217443265 -388.8173858040549 -876.1333708362716 148.5358584350497 -1028.6970962124296C685.8891026741542 -1181.2608215885875 1323.9163451401782 -613.2722448032039 1611.7848054705687 -54.749111387593985C1899.65326580096 503.77402202801636 1759.5981513652937 1301.661176110801 1530.3044680209227 1652.2139441824952 "></path><path d="M1582.229103070801 -43.65776119916745C1863.0763814419142 501.2428567672812 1726.4372454071176 1279.6693485553642 1502.7360909248046 1621.672049113114C1279.0349364424915 1963.6747496708645 1016.1495849089624 1796.0562530561888 508.4635615556979 1597.9552014780338C0.7775382024333339 1399.8541498998788 -860.4496530849792 1210.7466095804389 -934.1568211708609 670.7870015379658C-1007.8639892567426 130.82739349549274 -369.57791280688093 -845.0082582222677 154.66915474346501 -993.8509171258364C678.9162222938112 -1142.6935760294052 1301.381824699688 -588.5583791656163 1582.229103070801 -43.65776119916745C1863.0763814419142 501.2428567672812 1726.4372454071176 1279.6693485553642 1502.7360909248046 1621.672049113114 "></path><path d="M1552.6733701534545 -32.56622790527217C1826.4994665652898 498.71187461201544 1693.2763089313635 1257.677704105396 1475.1676833111087 1591.1303371492027C1257.059057690853 1924.5829701930088 1000.7458399456618 1761.1549359937003 505.7519671762291 1568.0064107049989C10.758094406796317 1374.8578854162974 -828.9384170984308 1190.4780336048439 -900.8029059821655 664.0174157634328C-972.6673948659002 137.55679792202136 -350.338470327285 -813.882962502795 160.8024205343022 -959.0045549337744C671.9433113958896 -1104.1261473647542 1278.8472737416196 -563.84433042256 1552.6733701534545 -32.56622790527217C1826.4994665652898 498.71187461201544 1693.2763089313635 1257.677704105396 1475.1676833111087 1591.1303371492027 "></path><path d="M1523.1176677536869 -21.47487771684564C1789.922582206244 496.1807093512807 1660.1154029731874 1235.6858765499596 1447.59930621499 1560.588442079822C1235.0832094567927 1885.4910076096849 985.3421254999403 1726.253435825743 503.04040331433885 1538.0574368264956C20.738681128737426 1349.8614378272482 -797.4271505943044 1170.2092745237806 -867.448960275892 657.2476468834311C-937.4707699574797 144.28601924308145 -331.09899733011105 -782.757849888791 166.9357168427175 -924.1583758471813C664.9704310155464 -1065.5589018055716 1256.3127533011293 -539.1304647849722 1523.1176677536869 -21.47487771684564C1789.922582206244 496.1807093512807 1660.1154029731874 1235.6858765499596 1447.59930621499 1560.588442079822 "></path><path d="M1493.5619348363402 -10.383344422950586C1753.34566732962 493.64972719601474 1626.9544664974333 1213.6942320999915 1420.0308986012938 1530.0467301159101C1213.1073307051547 1846.3992281318292 969.9383805366397 1691.352118763254 500.32880893487004 1508.1086460534607C30.71923733310041 1324.8651733436673 -765.9159146077561 1149.9406985481855 -834.0950450871967 650.4780611088977C-902.2741755666373 151.01542366961007 -311.8595548505152 -751.6325541693184 173.0689826335547 -889.3120136551195C657.9975201176248 -1026.9914731409206 1233.778202343061 -514.4164160419158 1493.5619348363402 -10.383344422950586C1753.34566732962 493.64972719601474 1626.9544664974333 1213.6942320999915 1420.0308986012938 1530.0467301159101 "></path><path d="M1464.0060798486816 0.7080973182103207C1716.7686303826836 491.11865348801416 1593.7934079513666 1191.7024960972885 1392.462368917285 1499.5049265992639C1191.1313298832033 1807.3073571012392 954.534513503027 1656.4507101480308 497.61709248508896 1478.1597637276914C40.69967146715089 1299.868817307352 -734.4048006915202 1129.6720310198561 -800.7412519688138 643.7083837816301C-867.0777032461074 157.74473654340431 -292.6202344412319 -720.50735000258 179.20212635407938 -854.4657430157919C651.0244871493908 -988.4241360290038 1211.24352931468 -489.70245885159375 1464.0060798486816 0.7080973182103207C1716.7686303826836 491.11865348801416 1593.7934079513666 1191.7024960972885 1392.462368917285 1499.5049265992639 "></path><path d="M1434.4504995192265 11.799447506636625C1680.1918680939502 488.58748822727944 1560.6326240635035 1169.710668541852 1364.8941138914797 1468.9630315298832C1169.1556037194555 1768.2153945179143 939.1309211276175 1621.5492099800736 494.905650693511 1448.2107898491877C50.6803802594045 1274.8723697183018 -702.8934121170814 1109.4032719387924 -767.3871841922278 636.9386149016282C-831.8809562673744 164.47395786446418 -273.38063937374534 -689.3822373885761 185.3355447328072 -819.6195639291986C644.0517288393601 -949.8568904698213 1188.7091309445022 -464.9885932140061 1434.4504995192265 11.799447506636625C1680.1918680939502 488.58748822727944 1560.6326240635035 1169.710668541852 1364.8941138914797 1468.9630315298832 "></path><path d="M1404.8947666018798 22.890980800531906C1643.6149532173263 486.05650607201346 1527.4716875877493 1147.719024091884 1337.325706277783 1438.4213195659718C1147.179724967817 1729.1236150400591 923.7271761643171 1586.647892917585 492.1940563140424 1418.2619990761532C60.660936463767484 1249.8761052347213 -671.382176130533 1089.1346959631974 -734.0332690035325 630.1690291270954C-796.684361876532 171.20336229099303 -254.14119689414952 -658.2569416691033 191.4688105236446 -784.7732017371368C637.0788179414387 -911.2894618051703 1166.1745799864339 -440.27454447094965 1404.8947666018798 22.890980800531906C1643.6149532173263 486.05650607201346 1527.4716875877493 1147.719024091884 1337.325706277783 1438.4213195659718 "></path><path d="M1375.3390642021122 33.98233098895844C1607.0380688582804 483.52534081127874 1494.3107816295733 1125.727196536447 1309.7573291816652 1407.8794244965907C1125.2038767337567 1690.0316524567347 908.3234617185951 1551.7463927496274 489.482492452152 1388.3130251976495C70.64152318570859 1224.8796576456716 -639.8709096264066 1068.8659368821336 -700.6793232972591 623.3992602470933C-761.4877369681114 177.9325836120529 -234.90172389697557 -627.1318290550994 197.6021068320597 -749.9270226505436C630.1059375610953 -872.7222162459877 1143.6400595459436 -415.560678833362 1375.3390642021122 33.98233098895844C1607.0380688582804 483.52534081127874 1494.3107816295733 1125.727196536447 1309.7573291816652 1407.8794244965907 "></path><path d="M1345.783209214453 45.07386428285349C1570.461031911344 480.99435865601276 1461.1497230835066 1103.735552086479 1282.188799497656 1377.3377125326792C1103.2278759118062 1650.939872978879 892.9195946849823 1516.8450756871384 486.77077600237067 1358.3642344246146C80.62195731975908 1199.8833931620902 -608.3597957101708 1048.5973609065386 -667.3255301788761 616.6296744725603C-726.2912646475816 184.6619880385815 -215.66240348769225 -596.0065333356267 203.7352505525846 -715.0806604584816C623.1329045928612 -834.1547875813367 1121.1053865175627 -390.84663009030555 1345.783209214453 45.07386428285349C1570.461031911344 480.99435865601276 1461.1497230835066 1103.735552086479 1282.188799497656 1377.3377125326792 "></path><path d="M1316.227506814685 56.1653060240144C1533.8841475522981 478.4632849480122 1427.9888171253306 1081.7438160837764 1254.6204224015382 1346.7959090160325C1081.252027677745 1611.848001948289 877.5158802392602 1481.9436670719156 484.05921214048044 1328.4153520988452C90.60254404170018 1174.887037125775 -576.8485292060443 1028.3286933782097 -633.9715844726027 609.8599971452927C-691.094639739161 191.39130091237598 -196.42293049051818 -564.8813291688883 209.8685468609999 -680.2343898191541C616.160024212518 -795.5874504694199 1098.5708660770724 -366.1326728999835 1316.227506814685 56.1653060240144C1533.8841475522981 478.4632849480122 1427.9888171253306 1081.7438160837764 1254.6204224015382 1346.7959090160325 "></path><path d="M1286.6718654500737 67.2567477651753C1497.307324228408 475.93221124001207 1394.8279722023108 1059.7520800810744 1227.0521063405758 1316.2541054993867C1059.2762404788414 1572.7561309176995 862.1122268286945 1447.0422584566927 481.347709313746 1298.4664697730764C100.58319179879754 1149.89068108946 -545.3372016667618 1008.0600258498803 -600.617577731173 603.0903198180254C-655.8979537955843 198.12061378617045 -177.18339645818799 -533.7561250021499 216.00190420457147 -645.3881191798266C609.187204867331 -757.0201133575031 1076.0364066717384 -341.41871570966146 1286.6718654500737 67.2567477651753C1497.307324228408 475.93221124001207 1394.8279722023108 1059.7520800810744 1227.0521063405758 1316.2541054993867 "></path><path d="M1257.116132532727 78.34818950633598C1460.7304093517841 473.4011375320115 1361.6670357265566 1037.7603440783714 1199.48369872688 1285.7123019827404C1037.300361727203 1533.664259887109 846.7084818653941 1412.1408498414694 478.63611493427743 1268.517587447307C110.56374800316075 1124.8943250531447 -513.8259656802134 987.7913583215509 -567.2636625424776 596.3206424907578C-620.7013594047419 204.8499266599647 -157.94395397859216 -502.63092083541164 222.13516999540866 -610.541848540499C602.2142939694095 -718.4527762455864 1053.50185571367 -316.7047585193394 1257.116132532727 78.34818950633598C1460.7304093517841 473.4011375320115 1361.6670357265566 1037.7603440783714 1199.48369872688 1285.7123019827404 "></path><path d="M1227.5602470274907 89.43960072991877C1424.1533418872696 470.870033306433 1328.5059466629118 1015.768577558091 1171.915138525293 1255.170467948516C1015.3243303876739 1494.5723583389408 831.3045843142033 1377.2394107086684 475.924367966918 1238.5686746039592C120.54415161963311 1099.8979384992508 -482.3148822815557 967.5226602756434 -533.9098999416728 589.5509346459121C-585.5049176017901 211.5792090161808 -138.70466408688696 -471.5057471862514 228.26828319835522 -575.6956084187495C595.2412304835973 -679.8854696512477 1030.9671521677112 -291.9908318465955 1227.5602470274907 89.43960072991877C1424.1533418872696 470.870033306433 1328.5059466629118 1015.768577558091 1171.915138525293 1255.170467948516 "></path><path d="M1198.0046361804566 100.53101195350143C1387.576549080958 468.33892908085454 1295.3451322574706 993.7768110378104 1144.3468529819093 1224.6286339142916C993.3485737063479 1455.4804567907731 815.9009614212155 1342.337971575867 473.21289565776215 1208.6197617606122C130.5248298943086 1074.9015519453576 -450.8035242246949 947.2539622297359 -500.55586268266507 582.7812268010664C-550.3082011406352 218.30849137239693 -119.46509953697864 -440.3805735370912 234.4016710595049 -540.8493682970002C588.2684416559885 -641.318163056909 1008.4327232799553 -267.27690517385145 1198.0046361804566 100.53101195350143C1387.576549080958 468.33892908085454 1295.3451322574706 993.7768110378104 1144.3468529819093 1224.6286339142916 "></path><path d="M1168.4487811927977 111.62248421224035C1350.9995121340216 465.8078858904321 1262.1840737114035 971.785105552686 1116.7783232979004 1194.086860915224C971.372572884397 1416.3886162777612 800.4970943876028 1307.4365934782218 470.50117920798084 1178.6709099524212C140.50526402835908 1049.9052264266204 -419.2924103084591 926.9853252189846 -467.20206956428217 576.011579991377C-515.1117288201053 225.0378347637693 -100.2257791276952 -409.2553388527748 240.5348147800296 -506.00306714009446C581.2954086877546 -602.7507954274142 985.8980502515744 -242.5629174659514 1168.4487811927977 111.62248421224035C1350.9995121340216 465.8078858904321 1262.1840737114035 971.785105552686 1116.7783232979004 1194.086860915224 "></path><path d="M1138.8930787930299 122.71392595340126C1314.4226277749758 463.27681218243197 1229.0231677532279 949.7933695499837 1089.209946201782 1163.5450573985775C949.3967246503364 1377.2967452471712 785.0933799418808 1272.535184862999 467.7896153460904 1148.722027626652C150.4858507503002 1024.908870390305 -387.78114380433266 906.7166576906554 -433.8481238580087 569.2419026641096C-479.91510391168475 231.76714763756377 -80.98630613052126 -378.13013468603646 246.66811108844513 -471.1567965007669C574.3225283074112 -564.1834583154973 963.3635298110842 -217.84896027562934 1138.8930787930299 122.71392595340126C1314.4226277749758 463.27681218243197 1229.0231677532279 949.7933695499837 1089.209946201782 1163.5450573985775 "></path><path d="M1109.3374069108397 133.80539821214018C1277.8457739335079 460.7457689920095 1195.86229231263 927.8016640648593 1061.6415996232422 1133.003284399509C927.4209069338544 1338.2049047341593 769.6896960137367 1237.6338067653542 465.07808200177806 1118.773175818461C160.46646798981942 999.9125448715679 -356.2698467826281 886.4480206799042 -400.4941476341571 562.4722558544202C-444.7184484856861 238.49649102893613 -61.746802615769184 -347.00490000172 252.80143791443845 -436.31049534386125C567.3496784446459 -525.6160906860025 940.829039888172 -193.13497256772916 1109.3374069108397 133.80539821214018C1277.8457739335079 460.7457689920095 1195.86229231263 927.8016640648593 1061.6415996232422 1133.003284399509 "></path><path d="M1079.781704511072 144.89680943572284C1241.268889574462 458.21466476643104 1162.701386354454 905.8098975445787 1034.073222527124 1102.461450365285C905.4450586997941 1299.1130031859911 754.2859815680147 1202.7323676325527 462.3665181398876 1088.8242629751135C170.44705471176053 974.9161583176744 -324.75858027850165 866.1793226339969 -367.14020192788365 555.7025480095745C-409.5218235772656 245.22577338515248 -42.50732961859512 -315.87972635255977 258.93473422285376 -401.46425522211183C560.3767980643029 -487.04878409166383 918.2945194476818 -168.42104589498524 1079.781704511072 144.89680943572284C1241.268889574462 458.21466476643104 1162.701386354454 905.8098975445787 1034.073222527124 1102.461450365285 "></path><path d="M1050.2259715937257 155.98828169446176C1204.6919746978378 455.6836215760086 1129.5404498786997 883.8181920594541 1006.5048149134277 1071.9196773662168C883.4691799481554 1260.0211626729795 738.8822366047143 1167.8309895349078 459.654923760419 1058.8754111669225C180.4276109161235 949.9198327989373 -293.24734429195337 845.9106856232454 -333.7862867391883 548.9329011998852C-374.3252291864232 251.95511677652485 -23.267887138999413 -284.7544916682433 265.06800001369095 -366.61795406520616C553.4038871663811 -448.48141646216897 895.7599684896134 -143.70705818708507 1050.2259715937257 155.98828169446176C1204.6919746978378 455.6836215760086 1129.5404498786997 883.8181920594541 1006.5048149134277 1071.9196773662168 "></path><path d="M1020.6702691939577 167.07969291804466C1168.115090338792 453.15251735043034 1096.379543920524 861.8264255391737 978.9364378173095 1041.3778433319926C861.4933317140953 1220.9292611248113 723.4785221589923 1132.9295504021065 456.94335989852857 1028.9264983235753C190.40819763806462 924.9234462450438 -261.73607778782696 825.6419875773381 -300.43234103291485 542.1631933550395C-339.1286042780027 258.6843991327411 -4.028414141825351 -253.62931801908314 271.20129632210626 -331.7717139434567C546.4310067860379 -409.9141098678303 873.2254480491231 -118.99313151434114 1020.6702691939577 167.07969291804466C1168.115090338792 453.15251735043034 1096.379543920524 861.8264255391737 978.9364378173095 1041.3778433319926 "></path><path d="M991.1145362766115 178.1711041416272C1131.538175462168 450.62141312485164 1063.2186074447698 839.834659018893 951.3680302036132 1010.836009297768C839.5174529624567 1181.8373595766432 708.0747771956921 1098.0281112693053 454.23176551906 998.9775854802278C200.3887538424276 899.9270596911504 -230.22484180127861 805.3732895314304 -267.07842584421945 535.3934855101938C-303.9320098871603 265.4136814889573 15.211028337770472 -222.50414436992293 277.33456211294344 -296.92547382170727C539.4580958881165 -371.3468032734917 850.6908970910549 -94.27920484159722 991.1145362766115 178.1711041416272C1131.538175462168 450.62141312485164 1063.2186074447698 839.834659018893 951.3680302036132 1010.836009297768 "></path><path d="M961.5587728416872 189.26254588278812C1094.9612300679657 448.0903394168513 1030.0576404514375 817.8429230161908 923.7995920723388 980.294205781122C817.5415436932401 1142.7454885460534 692.6710017148139 1063.1267026540825 451.52014062201306 969.0287031544588C210.36927952921246 874.930703654835 -198.71363633230845 785.1046220031012 -233.72454117310224 528.6238081829265C-268.735446013896 272.14299436275166 34.45044029978817 -191.37894020318458 283.4677973862025 -262.07920318237973C532.4851544726171 -332.7794661615749 828.1563156154084 -69.56524765127517 961.5587728416872 189.26254588278812C1094.9612300679657 448.0903394168513 1030.0576404514375 817.8429230161908 923.7995920723388 980.294205781122 "></path><path d="M932.0030399243408 200.35404865910516C1058.3843151913418 445.5593267440072 996.8967039756833 795.8512480486443 896.2311844586425 949.7524632996319C795.5656649416017 1103.6536785506196 677.2672567515135 1028.2253550740154 448.8085462425445 939.0798818638457C220.34983573357545 849.934408653676 -167.20240034576017 764.8360155099281 -200.3706259844069 521.854191890815C-233.5388516230537 278.87236827170216 53.68988277938411 -160.25367500129 289.6010631770397 -227.23287150789594C525.5122435746953 -294.2120680145019 805.62176465734 -44.85122942579687 932.0030399243408 200.35404865910516C1058.3843151913418 445.5593267440072 996.8967039756833 795.8512480486443 896.2311844586425 949.7524632996319 "></path><path d="M902.4473375245727 211.44549040026595C1021.807430832296 443.02825303600673 963.7357980175075 773.859512045942 868.6628073625243 919.2106597829859C773.5898167075413 1064.5618075200296 661.8635423057913 993.3239464587925 446.096982380654 909.1309995380766C230.33042245551655 824.9380526173607 -135.6911338416337 744.5673479815987 -167.01668027813344 515.0845145635476C-198.34222671463317 285.6016811454965 72.92935577655805 -129.12847083455165 295.7343594854551 -192.3866008685684C518.5393631943521 -255.64473090258508 783.0872442168497 -20.137272235474825 902.4473375245727 211.44549040026595C1021.807430832296 443.02825303600673 963.7357980175075 773.859512045942 868.6628073625243 919.2106597829859 "></path><path d="M872.8916046072266 222.53696265900487C985.230515955672 440.4972098455845 930.5748615417533 751.8678065608176 841.094399748828 888.6688867839177C751.6139379559031 1025.4699670070177 646.4597973424911 958.4225683611473 443.38538800118533 879.1821477298854C240.31097865987954 799.9417270986232 -104.17989785508541 724.2987109708474 -133.6627650894381 508.31486775385827C-163.14563232379078 292.3310245368689 92.16879825615388 -98.00323615023524 301.8676252762923 -157.54029971166273C511.5664522964306 -217.0773632730902 760.5526932587813 4.576715472425349 872.8916046072266 222.53696265900487C985.230515955672 440.4972098455845 930.5748615417533 751.8678065608176 841.094399748828 888.6688867839177 "></path><path d="M843.3358716898806 233.62837388258765C948.6536010790478 437.96610562000603 897.4139250659991 729.8760400405372 813.5259921351317 858.1270527496933C729.6380592042644 986.3780654588497 631.056052379191 923.5211292283464 440.67379362171675 849.2332348865382C250.29153486424252 774.94534054473 -72.66866186853713 704.0300129249401 -100.30884990074276 501.5451599090127C-127.94903793294839 299.0603068930852 111.40824073574981 -66.87806250107496 308.0008910671295 -122.69405958991325C504.5935413985093 -178.51005667875154 738.018142300713 29.290642145169272 843.3358716898806 233.62837388258765C948.6536010790478 437.96610562000603 897.4139250659991 729.8760400405372 813.5259921351317 858.1270527496933 "></path><path d="M813.7801692901126 244.7197545885922C912.076716720002 435.4349708768493 864.2530191078231 707.8842430026784 785.9576150390137 827.5851881978908C707.6622109702041 947.2861333931032 615.652337933469 888.619659577967 437.9622297598262 819.2842915256124C260.27212158618374 749.9489234732582 -41.15739536441066 683.7612843614545 -66.95490419446924 494.77542154658886C-92.75241302452787 305.7895587317232 130.64771373292365 -35.75291936949293 314.1341873755448 -87.84784998574196C497.62066101816583 -139.94278060199105 715.4836218602227 54.00453830033507 813.7801692901126 244.7197545885922C912.076716720002 435.4349708768493 864.2530191078231 707.8842430026784 785.9576150390137 827.5851881978908 "></path><path d="M784.2244363727659 255.81125736490924C875.499801843378 432.9039582040051 831.0920826320689 685.8925680351322 758.3892074253174 797.043445716401C685.6863322185657 908.1943233976697 600.2485929701686 853.7183119979 435.2506353803576 789.3354702349998C270.2526777905467 724.9526284720991 -9.646159377862375 663.4926778682814 -33.6009890057739 488.00580525447754C-57.555818633685476 312.5189326406737 149.88715621251959 -4.627654167598337 320.267453166382 -53.00151831125817C490.6477501202445 -101.375382454918 692.9490709021543 78.71855652581337 784.2244363727659 255.81125736490924C875.499801843378 432.9039582040051 831.0920826320689 685.8925680351322 758.3892074253174 797.043445716401 "></path><path d="M754.6687339729979 266.90269910607003C838.9229174843322 430.37288449600476 797.9311766738931 663.9008320324297 730.8208303291992 766.5016421997545C663.7104839845053 869.1024523670796 584.8448785244465 818.8169033826771 432.53907151846715 759.3865879092305C280.23326451248784 699.9562724357838 21.865107126264093 643.2240103399521 -0.24704329950043302 481.2361279272101C-22.35919372526496 319.24824551446807 169.12662920969353 26.497549999140006 326.4007494747973 -18.155247671930624C483.67486973990106 -62.808045343001254 670.4145504616641 103.43251371613542 754.6687339729979 266.90269910607003C838.9229174843322 430.37288449600476 797.9311766738931 663.9008320324297 730.8208303291992 766.5016421997545 "></path><path d="M725.1130010556519 277.9941103296528C802.346002607708 427.84178027042617 764.7702401981389 641.9090655121489 703.2524227155029 735.9598081655304C641.7346052328668 830.0105508189117 569.4411335611462 783.9154642498756 429.8274771389986 729.437675065883C290.2138207168508 674.9598858818905 53.37634311281238 622.9553122940446 33.106871889194906 474.4664200823645C12.837400665577434 325.9775278706843 188.36607168928936 57.62272364830022 332.5340152656345 16.690992449818793C476.7019588419796 -24.24073874866258 647.8799995035957 128.14644038887934 725.1130010556519 277.9941103296528C802.346002607708 427.84178027042617 764.7702401981389 641.9090655121489 703.2524227155029 735.9598081655304 "></path><path d="M695.5572681383057 289.08558258839173C765.769087731084 425.31073708000395 731.6093037223849 619.9173600270246 675.6840151018066 705.4180351664621C619.7587264812283 790.9187103058998 554.0373885978461 749.0140861522309 427.11588275953 699.488823257692C300.1943769212138 649.9635603631533 84.88757909936066 602.6866752832933 66.46078707789025 467.69677327267505C48.033995056419826 332.7068712620568 207.60551416888524 88.74795833261669 338.66728105647167 51.53729360672446C469.72904794405827 14.326628880832288 625.3454485455275 152.86042809677951 695.5572681383057 289.08558258839173C765.769087731084 425.31073708000395 731.6093037223849 619.9173600270246 675.6840151018066 705.4180351664621 "></path><path d="M666.0015352209595 300.1770243295525C729.19217285446 422.7796633720036 698.4483672466307 597.9256240243221 648.1156074881103 674.876231649816C597.7828477295899 751.8268392753098 538.6336436345458 714.1126775370077 424.4042883800613 669.5399409319228C310.1749331255768 624.967204326838 116.398815085909 582.418007754964 99.81470226658558 460.9270959454075C83.23058944726222 339.43618413585114 226.84495664848112 119.87316249935498 344.80054684730885 86.38356424605206C462.7561370461367 52.89396599274909 602.8108975874591 177.57438528710156 666.0015352209595 300.1770243295525C729.19217285446 422.7796633720036 698.4483672466307 597.9256240243221 648.1156074881103 674.876231649816 "></path><path d="M636.4458023036133 311.26846607071343C692.615257977836 420.24858966400325 665.2874307708767 575.9338880216197 620.547199874414 644.3344281331698C575.8069689779516 712.7349682447198 523.2298986712456 679.2112689217846 421.6926940005926 639.5910586061536C320.15548932993977 599.9708482905226 147.9100510724573 562.1493402266346 133.16861745528098 454.1574186181401C118.42718383810461 346.1654970096454 246.08439912807694 150.99836666609332 350.93381263814615 121.2298348853796C455.78322614821536 91.46130310466583 580.2763466293907 202.2883424774236 636.4458023036133 311.26846607071343C692.615257977836 420.24858966400325 665.2874307708767 575.9338880216197 620.547199874414 644.3344281331698 "></path><path d="M606.8900999038453 322.3598772942961C656.03837361879 417.71748543842466 632.1265248127006 553.9421215013392 592.9788227782959 613.7925940989454C553.8311207438911 673.6430666965516 507.82618422552355 644.3098297889835 418.98113013870216 609.6421457628062C330.13607605188093 574.9744617366291 179.4213175765837 541.8806421807272 166.52256316155444 447.38771077329443C153.62380874652513 352.8947793658616 265.3238721252509 182.12354031525354 357.06710894656146 156.07607500712902C448.8103457678719 130.0286096990045 557.7418261889004 227.00226915016754 606.8900999038453 322.3598772942961C656.03837361879 417.71748543842466 632.1265248127006 553.9421215013392 592.9788227782959 613.7925940989454 "></path><path d="M577.3343669864989 333.451349553035C619.4614587421661 415.1864422480023 598.9655883369466 531.9504160162148 565.4104151645996 583.2508210998773C531.8552419922527 634.5512261835398 492.4224392622232 609.4084516913385 416.2695357592336 579.6932939546152C340.1166322562439 549.9781362178919 210.93255356313205 521.6120051699761 199.87647835024978 440.618063963605C188.82040313736752 359.6241227572341 284.56331460484677 213.24877499957 363.20037473739865 190.9223761640347C441.8374348699506 168.59597732849937 535.207275230832 251.7162568580677 577.3343669864989 333.451349553035C619.4614587421661 415.1864422480023 598.9655883369466 531.9504160162148 565.4104151645996 583.2508210998773 "></path><path d="M547.7786340691529 344.54279129419587C582.884543865542 412.655368540002 565.8046518611925 509.9586800135123 537.8420075509033 552.7090175832311C509.8793632406141 595.4593551529499 477.01869429892304 574.5070430761155 413.557941379765 549.744411628846C350.0971884606069 524.9817801815766 242.44378954968033 501.3433376416467 233.23039353894512 433.8483866363375C224.0169975282099 366.3534356310284 303.80275708444265 244.37397916630835 369.33364052823583 225.76864680336223C434.86452397202913 207.16331444041617 512.6727242727637 276.43021404838976 547.7786340691529 344.54279129419587C582.884543865542 412.655368540002 565.8046518611925 509.9586800135123 537.8420075509033 552.7090175832311 "></path><path d="M518.2229164105956 355.6342330353567C546.307644247707 410.1242948320016 532.6437306442274 487.9669440108098 510.27361519599606 522.1672140665848C487.90349974776484 556.3674841223599 461.61496459441184 539.6056344608924 410.84636225908537 519.7955293030768C360.07775992375895 499.9854241452613 273.95504079501774 481.0746701133173 266.5843239864295 427.07870930907006C259.21360717784137 373.0827485048227 323.04221482282753 275.4991833330467 375.46692157786214 260.6149174426898C427.89162833289674 245.73065155233292 490.1381885734844 301.1441712387118 518.2229164105956 355.6342330353567C546.307644247707 410.1242948320016 532.6437306442274 487.9669440108098 510.27361519599606 522.1672140665848 "></path><path d="M488.66718349324947 366.7256747765175C509.73072937108304 407.59322112400116 499.4827941684732 465.9752080081074 482.70520758229986 491.6254105499386C465.92762099612634 517.2756130917699 446.2112196311116 504.70422584566927 408.1347678796168 489.8466469773076C370.058316128122 474.98906810894596 305.466276781566 460.80600258498805 299.93823917512486 420.3090319818025C294.41020156868376 379.81206137861705 342.28165730242335 306.62438749978503 381.6001873686993 295.4611880820174C420.9187174349753 284.2979886642497 467.603637615416 325.85812842903385 488.66718349324947 366.7256747765175C509.73072937108304 407.59322112400116 499.4827941684732 465.9752080081074 482.70520758229986 491.6254105499386 "></path><path d="M459.1114505759033 377.81711651767836C473.15381449445897 405.0621474160008 466.32185769271916 443.9834720054049 455.1367999686035 461.0836070332924C443.9517422444879 478.18374206117994 430.8074746678114 469.8028172304462 405.42317350014815 459.8977646515384C380.03887233248497 449.99271207263064 336.9775127681143 440.53733505665866 333.29215436382026 413.53935465453503C329.60679595952615 386.54137425241134 361.52109978201923 337.7495916665233 387.7334531595365 330.3074587213449C413.94580653705384 322.86532577616646 445.06908665734767 350.5720856193559 459.1114505759033 377.81711651767836C473.15381449445897 405.0621474160008 466.32185769271916 443.9834720054049 455.1367999686035 461.0836070332924 "></path><path d="M429.5557176585571 388.90855825883915C436.57689961783495 402.5310737080004 433.16092121696505 421.99173600270245 427.56839235490725 430.5418035166462C421.9758634928494 439.09187103058997 415.4037297045112 434.9014086152231 402.7115791206796 429.9488823257692C390.01942853684795 424.9963560363153 368.48874875466265 420.26866752832933 366.6460695525156 406.7696773272675C364.80339035036855 393.2706871262057 380.7605422616151 368.87479583326166 393.86671895037375 365.15372936067246C406.9728956391324 361.43266288808326 422.53453569927933 375.28604280967795 429.5557176585571 388.90855825883915C436.57689961783495 402.5310737080004 433.16092121696505 421.99173600270245 427.56839235490725 430.5418035166462 "></path></g></svg>